<mxfile host="app.diagrams.net" agent="Mozilla/5.0 (Macintosh; Intel Mac OS X 10_15_7) AppleWebKit/537.36 (KHTML, like Gecko) Chrome/130.0.0.0 Safari/537.36" version="24.8.3">
  <diagram name="Page-1" id="p2TR9Vz6fpGwFdtY-92V">
    <mxGraphModel dx="816" dy="505" grid="1" gridSize="10" guides="1" tooltips="1" connect="1" arrows="1" fold="1" page="1" pageScale="1" pageWidth="850" pageHeight="1100" math="0" shadow="0">
      <root>
        <mxCell id="0" />
        <mxCell id="1" parent="0" />
        <mxCell id="fRGhDktETYHb91IR-q1d-1" value="" style="rounded=0;whiteSpace=wrap;html=1;movable=0;resizable=0;rotatable=0;deletable=0;editable=0;locked=1;connectable=0;" vertex="1" parent="1">
          <mxGeometry x="80" y="60" width="750" height="480" as="geometry" />
        </mxCell>
        <mxCell id="fRGhDktETYHb91IR-q1d-3" value="QC/BREAK/VV" style="rounded=0;whiteSpace=wrap;html=1;" vertex="1" parent="1">
          <mxGeometry x="80" y="190" width="140" height="260" as="geometry" />
        </mxCell>
        <mxCell id="fRGhDktETYHb91IR-q1d-4" value="8FT-RACKING" style="rounded=0;whiteSpace=wrap;html=1;direction=west;" vertex="1" parent="1">
          <mxGeometry x="320" y="610" width="80" height="30" as="geometry" />
        </mxCell>
        <mxCell id="fRGhDktETYHb91IR-q1d-5" value="SPACER" style="whiteSpace=wrap;html=1;aspect=fixed;" vertex="1" parent="1">
          <mxGeometry x="666" y="355" width="30" height="30" as="geometry" />
        </mxCell>
        <mxCell id="fRGhDktETYHb91IR-q1d-6" value="8FT-RACKING" style="rounded=0;whiteSpace=wrap;html=1;direction=west;" vertex="1" parent="1">
          <mxGeometry x="330" y="620" width="80" height="30" as="geometry" />
        </mxCell>
        <mxCell id="fRGhDktETYHb91IR-q1d-7" value="8FT-RACKING" style="rounded=0;whiteSpace=wrap;html=1;direction=west;" vertex="1" parent="1">
          <mxGeometry x="340" y="630" width="80" height="30" as="geometry" />
        </mxCell>
        <mxCell id="fRGhDktETYHb91IR-q1d-8" value="8FT-RACKING" style="rounded=0;whiteSpace=wrap;html=1;direction=west;" vertex="1" parent="1">
          <mxGeometry x="350" y="640" width="80" height="30" as="geometry" />
        </mxCell>
        <mxCell id="fRGhDktETYHb91IR-q1d-9" value="8FT-RACKING" style="rounded=0;whiteSpace=wrap;html=1;direction=west;" vertex="1" parent="1">
          <mxGeometry x="360" y="650" width="80" height="30" as="geometry" />
        </mxCell>
        <mxCell id="fRGhDktETYHb91IR-q1d-10" value="8FT-RACKING" style="rounded=0;whiteSpace=wrap;html=1;direction=west;" vertex="1" parent="1">
          <mxGeometry x="370" y="660" width="80" height="30" as="geometry" />
        </mxCell>
        <mxCell id="fRGhDktETYHb91IR-q1d-11" value="8FT-RACKING" style="rounded=0;whiteSpace=wrap;html=1;direction=west;" vertex="1" parent="1">
          <mxGeometry x="380" y="670" width="80" height="30" as="geometry" />
        </mxCell>
        <mxCell id="fRGhDktETYHb91IR-q1d-12" value="STAIRS" style="rounded=0;whiteSpace=wrap;html=1;direction=west;" vertex="1" parent="1">
          <mxGeometry x="220" y="240" width="40" height="150" as="geometry" />
        </mxCell>
        <mxCell id="fRGhDktETYHb91IR-q1d-13" value="SHELVES" style="rounded=0;whiteSpace=wrap;html=1;" vertex="1" parent="1">
          <mxGeometry x="530" y="570" width="90" height="20" as="geometry" />
        </mxCell>
        <mxCell id="fRGhDktETYHb91IR-q1d-14" value="SHELVES" style="rounded=0;whiteSpace=wrap;html=1;" vertex="1" parent="1">
          <mxGeometry x="540" y="580" width="90" height="20" as="geometry" />
        </mxCell>
        <mxCell id="fRGhDktETYHb91IR-q1d-15" value="SHELVES" style="rounded=0;whiteSpace=wrap;html=1;" vertex="1" parent="1">
          <mxGeometry x="710" y="60" width="90" height="20" as="geometry" />
        </mxCell>
        <mxCell id="fRGhDktETYHb91IR-q1d-16" value="SHELVES" style="rounded=0;whiteSpace=wrap;html=1;" vertex="1" parent="1">
          <mxGeometry x="574" y="230" width="90" height="20" as="geometry" />
        </mxCell>
        <mxCell id="fRGhDktETYHb91IR-q1d-17" value="SHELVES" style="rounded=0;whiteSpace=wrap;html=1;" vertex="1" parent="1">
          <mxGeometry x="463" y="225" width="90" height="20" as="geometry" />
        </mxCell>
        <mxCell id="fRGhDktETYHb91IR-q1d-18" value="SHELVES" style="rounded=0;whiteSpace=wrap;html=1;" vertex="1" parent="1">
          <mxGeometry x="353.5" y="225" width="90" height="20" as="geometry" />
        </mxCell>
        <mxCell id="fRGhDktETYHb91IR-q1d-19" value="SHELVES" style="rounded=0;whiteSpace=wrap;html=1;" vertex="1" parent="1">
          <mxGeometry x="574" y="130" width="90" height="20" as="geometry" />
        </mxCell>
        <mxCell id="fRGhDktETYHb91IR-q1d-20" value="SHELVES" style="rounded=0;whiteSpace=wrap;html=1;" vertex="1" parent="1">
          <mxGeometry x="463" y="175" width="90" height="20" as="geometry" />
        </mxCell>
        <mxCell id="fRGhDktETYHb91IR-q1d-21" value="SHELVES" style="rounded=0;whiteSpace=wrap;html=1;" vertex="1" parent="1">
          <mxGeometry x="353" y="175" width="90" height="20" as="geometry" />
        </mxCell>
        <mxCell id="fRGhDktETYHb91IR-q1d-22" value="SHELVES" style="rounded=0;whiteSpace=wrap;html=1;direction=west;" vertex="1" parent="1">
          <mxGeometry x="574" y="180" width="90" height="20" as="geometry" />
        </mxCell>
        <mxCell id="fRGhDktETYHb91IR-q1d-23" value="SKINNY" style="rounded=0;whiteSpace=wrap;html=1;" vertex="1" parent="1">
          <mxGeometry x="463" y="130" width="90" height="15" as="geometry" />
        </mxCell>
        <mxCell id="fRGhDktETYHb91IR-q1d-24" value="SKINNY" style="rounded=0;whiteSpace=wrap;html=1;" vertex="1" parent="1">
          <mxGeometry x="353" y="130" width="90" height="15" as="geometry" />
        </mxCell>
        <mxCell id="fRGhDktETYHb91IR-q1d-29" value="TABLE" style="rounded=0;whiteSpace=wrap;html=1;" vertex="1" parent="1">
          <mxGeometry x="550" y="730" width="60" height="26" as="geometry" />
        </mxCell>
        <mxCell id="fRGhDktETYHb91IR-q1d-30" value="WILLABY SHELF" style="rounded=0;whiteSpace=wrap;html=1;direction=north;" vertex="1" parent="1">
          <mxGeometry x="262" y="275" width="30" height="80" as="geometry" />
        </mxCell>
        <mxCell id="fRGhDktETYHb91IR-q1d-31" value="TABLE" style="rounded=0;whiteSpace=wrap;html=1;" vertex="1" parent="1">
          <mxGeometry x="560" y="740" width="60" height="26" as="geometry" />
        </mxCell>
        <mxCell id="fRGhDktETYHb91IR-q1d-32" value="TABLE" style="rounded=0;whiteSpace=wrap;html=1;direction=south;" vertex="1" parent="1">
          <mxGeometry x="308" y="257" width="26" height="60" as="geometry" />
        </mxCell>
        <mxCell id="fRGhDktETYHb91IR-q1d-33" value="TABLE" style="rounded=0;whiteSpace=wrap;html=1;direction=south;" vertex="1" parent="1">
          <mxGeometry x="308" y="330" width="26" height="60" as="geometry" />
        </mxCell>
        <mxCell id="fRGhDktETYHb91IR-q1d-34" value="QC" style="rounded=0;whiteSpace=wrap;html=1;" vertex="1" parent="1">
          <mxGeometry x="715" y="740" width="60" height="30" as="geometry" />
        </mxCell>
        <mxCell id="fRGhDktETYHb91IR-q1d-35" value="8FT-RACKING" style="rounded=0;whiteSpace=wrap;html=1;direction=west;" vertex="1" parent="1">
          <mxGeometry x="390" y="680" width="80" height="30" as="geometry" />
        </mxCell>
        <mxCell id="fRGhDktETYHb91IR-q1d-36" value="8FT-RACKING" style="rounded=0;whiteSpace=wrap;html=1;direction=west;" vertex="1" parent="1">
          <mxGeometry x="410" y="726" width="80" height="30" as="geometry" />
        </mxCell>
        <mxCell id="fRGhDktETYHb91IR-q1d-37" value="GARAGE DOOR" style="rounded=0;whiteSpace=wrap;html=1;" vertex="1" parent="1">
          <mxGeometry x="400" y="520" width="70" height="20" as="geometry" />
        </mxCell>
        <mxCell id="fRGhDktETYHb91IR-q1d-38" value="DOOR" style="rounded=0;whiteSpace=wrap;html=1;" vertex="1" parent="1">
          <mxGeometry x="490" y="520" width="20" height="20" as="geometry" />
        </mxCell>
        <mxCell id="fRGhDktETYHb91IR-q1d-41" value="WB" style="rounded=0;whiteSpace=wrap;html=1;" vertex="1" parent="1">
          <mxGeometry x="78" y="60" width="24" height="15" as="geometry" />
        </mxCell>
        <mxCell id="fRGhDktETYHb91IR-q1d-48" value="WB" style="rounded=0;whiteSpace=wrap;html=1;" vertex="1" parent="1">
          <mxGeometry x="102" y="60" width="24" height="15" as="geometry" />
        </mxCell>
        <mxCell id="fRGhDktETYHb91IR-q1d-49" value="WB" style="rounded=0;whiteSpace=wrap;html=1;" vertex="1" parent="1">
          <mxGeometry x="126" y="60" width="24" height="15" as="geometry" />
        </mxCell>
        <mxCell id="fRGhDktETYHb91IR-q1d-50" value="WB" style="rounded=0;whiteSpace=wrap;html=1;" vertex="1" parent="1">
          <mxGeometry x="150" y="60" width="24" height="15" as="geometry" />
        </mxCell>
        <mxCell id="fRGhDktETYHb91IR-q1d-51" value="WB" style="rounded=0;whiteSpace=wrap;html=1;" vertex="1" parent="1">
          <mxGeometry x="174" y="60" width="24" height="15" as="geometry" />
        </mxCell>
        <mxCell id="fRGhDktETYHb91IR-q1d-52" value="WB" style="rounded=0;whiteSpace=wrap;html=1;" vertex="1" parent="1">
          <mxGeometry x="198" y="60" width="24" height="15" as="geometry" />
        </mxCell>
        <mxCell id="fRGhDktETYHb91IR-q1d-53" value="WB" style="rounded=0;whiteSpace=wrap;html=1;" vertex="1" parent="1">
          <mxGeometry x="430" y="60" width="24" height="15" as="geometry" />
        </mxCell>
        <mxCell id="fRGhDktETYHb91IR-q1d-54" value="WB" style="rounded=0;whiteSpace=wrap;html=1;" vertex="1" parent="1">
          <mxGeometry x="316" y="60" width="24" height="15" as="geometry" />
        </mxCell>
        <mxCell id="fRGhDktETYHb91IR-q1d-55" value="WB" style="rounded=0;whiteSpace=wrap;html=1;" vertex="1" parent="1">
          <mxGeometry x="338" y="60" width="24" height="15" as="geometry" />
        </mxCell>
        <mxCell id="fRGhDktETYHb91IR-q1d-56" value="WB" style="rounded=0;whiteSpace=wrap;html=1;" vertex="1" parent="1">
          <mxGeometry x="362" y="60" width="24" height="15" as="geometry" />
        </mxCell>
        <mxCell id="fRGhDktETYHb91IR-q1d-57" value="WB" style="rounded=0;whiteSpace=wrap;html=1;" vertex="1" parent="1">
          <mxGeometry x="386" y="60" width="24" height="15" as="geometry" />
        </mxCell>
        <mxCell id="fRGhDktETYHb91IR-q1d-58" value="WB" style="rounded=0;whiteSpace=wrap;html=1;" vertex="1" parent="1">
          <mxGeometry x="406" y="60" width="24" height="15" as="geometry" />
        </mxCell>
        <mxCell id="fRGhDktETYHb91IR-q1d-59" value="PB" style="rounded=0;whiteSpace=wrap;html=1;" vertex="1" parent="1">
          <mxGeometry x="353.5" y="115" width="16" height="14" as="geometry" />
        </mxCell>
        <mxCell id="fRGhDktETYHb91IR-q1d-60" value="PB" style="rounded=0;whiteSpace=wrap;html=1;" vertex="1" parent="1">
          <mxGeometry x="369.5" y="115" width="16" height="14" as="geometry" />
        </mxCell>
        <mxCell id="fRGhDktETYHb91IR-q1d-61" value="PB" style="rounded=0;whiteSpace=wrap;html=1;" vertex="1" parent="1">
          <mxGeometry x="385.5" y="115" width="16" height="14" as="geometry" />
        </mxCell>
        <mxCell id="fRGhDktETYHb91IR-q1d-62" value="PB" style="rounded=0;whiteSpace=wrap;html=1;" vertex="1" parent="1">
          <mxGeometry x="401.5" y="115" width="16" height="14" as="geometry" />
        </mxCell>
        <mxCell id="fRGhDktETYHb91IR-q1d-63" value="PB" style="rounded=0;whiteSpace=wrap;html=1;" vertex="1" parent="1">
          <mxGeometry x="417.5" y="115" width="16" height="14" as="geometry" />
        </mxCell>
        <mxCell id="fRGhDktETYHb91IR-q1d-64" value="PB" style="rounded=0;whiteSpace=wrap;html=1;" vertex="1" parent="1">
          <mxGeometry x="433.5" y="115" width="16" height="14" as="geometry" />
        </mxCell>
        <mxCell id="fRGhDktETYHb91IR-q1d-65" value="PB" style="rounded=0;whiteSpace=wrap;html=1;" vertex="1" parent="1">
          <mxGeometry x="455" y="115" width="16" height="14" as="geometry" />
        </mxCell>
        <mxCell id="fRGhDktETYHb91IR-q1d-66" value="PB" style="rounded=0;whiteSpace=wrap;html=1;" vertex="1" parent="1">
          <mxGeometry x="471" y="115" width="16" height="14" as="geometry" />
        </mxCell>
        <mxCell id="fRGhDktETYHb91IR-q1d-67" value="PB" style="rounded=0;whiteSpace=wrap;html=1;" vertex="1" parent="1">
          <mxGeometry x="487" y="115" width="16" height="14" as="geometry" />
        </mxCell>
        <mxCell id="fRGhDktETYHb91IR-q1d-68" value="PB" style="rounded=0;whiteSpace=wrap;html=1;" vertex="1" parent="1">
          <mxGeometry x="503" y="115" width="16" height="14" as="geometry" />
        </mxCell>
        <mxCell id="fRGhDktETYHb91IR-q1d-69" value="PB" style="rounded=0;whiteSpace=wrap;html=1;" vertex="1" parent="1">
          <mxGeometry x="519" y="115" width="16" height="14" as="geometry" />
        </mxCell>
        <mxCell id="fRGhDktETYHb91IR-q1d-70" value="PB" style="rounded=0;whiteSpace=wrap;html=1;" vertex="1" parent="1">
          <mxGeometry x="535" y="115" width="16" height="14" as="geometry" />
        </mxCell>
        <mxCell id="fRGhDktETYHb91IR-q1d-71" value="PB" style="rounded=0;whiteSpace=wrap;html=1;" vertex="1" parent="1">
          <mxGeometry x="650" y="20" width="16" height="14" as="geometry" />
        </mxCell>
        <mxCell id="fRGhDktETYHb91IR-q1d-72" value="PB" style="rounded=0;whiteSpace=wrap;html=1;" vertex="1" parent="1">
          <mxGeometry x="660" y="30" width="16" height="14" as="geometry" />
        </mxCell>
        <mxCell id="fRGhDktETYHb91IR-q1d-73" value="PB" style="rounded=0;whiteSpace=wrap;html=1;" vertex="1" parent="1">
          <mxGeometry x="150" y="786" width="16" height="14" as="geometry" />
        </mxCell>
        <mxCell id="fRGhDktETYHb91IR-q1d-74" value="PB" style="rounded=0;whiteSpace=wrap;html=1;" vertex="1" parent="1">
          <mxGeometry x="160" y="796" width="16" height="14" as="geometry" />
        </mxCell>
        <mxCell id="fRGhDktETYHb91IR-q1d-75" value="PB" style="rounded=0;whiteSpace=wrap;html=1;" vertex="1" parent="1">
          <mxGeometry x="170" y="806" width="16" height="14" as="geometry" />
        </mxCell>
        <mxCell id="fRGhDktETYHb91IR-q1d-76" value="PB" style="rounded=0;whiteSpace=wrap;html=1;" vertex="1" parent="1">
          <mxGeometry x="180" y="816" width="16" height="14" as="geometry" />
        </mxCell>
        <mxCell id="fRGhDktETYHb91IR-q1d-77" value="PB" style="rounded=0;whiteSpace=wrap;html=1;" vertex="1" parent="1">
          <mxGeometry x="190" y="826" width="16" height="14" as="geometry" />
        </mxCell>
        <mxCell id="fRGhDktETYHb91IR-q1d-78" value="PB" style="rounded=0;whiteSpace=wrap;html=1;" vertex="1" parent="1">
          <mxGeometry x="200" y="836" width="16" height="14" as="geometry" />
        </mxCell>
        <mxCell id="fRGhDktETYHb91IR-q1d-79" value="PB" style="rounded=0;whiteSpace=wrap;html=1;" vertex="1" parent="1">
          <mxGeometry x="210" y="846" width="16" height="14" as="geometry" />
        </mxCell>
        <mxCell id="fRGhDktETYHb91IR-q1d-80" value="PB" style="rounded=0;whiteSpace=wrap;html=1;" vertex="1" parent="1">
          <mxGeometry x="220" y="856" width="16" height="14" as="geometry" />
        </mxCell>
        <mxCell id="fRGhDktETYHb91IR-q1d-81" value="PB" style="rounded=0;whiteSpace=wrap;html=1;" vertex="1" parent="1">
          <mxGeometry x="230" y="866" width="16" height="14" as="geometry" />
        </mxCell>
        <mxCell id="fRGhDktETYHb91IR-q1d-82" value="PB" style="rounded=0;whiteSpace=wrap;html=1;" vertex="1" parent="1">
          <mxGeometry x="240" y="876" width="16" height="14" as="geometry" />
        </mxCell>
        <mxCell id="fRGhDktETYHb91IR-q1d-83" value="PB" style="rounded=0;whiteSpace=wrap;html=1;" vertex="1" parent="1">
          <mxGeometry x="250" y="886" width="16" height="14" as="geometry" />
        </mxCell>
        <mxCell id="fRGhDktETYHb91IR-q1d-84" value="PB" style="rounded=0;whiteSpace=wrap;html=1;" vertex="1" parent="1">
          <mxGeometry x="260" y="896" width="16" height="14" as="geometry" />
        </mxCell>
        <mxCell id="fRGhDktETYHb91IR-q1d-85" value="PB" style="rounded=0;whiteSpace=wrap;html=1;" vertex="1" parent="1">
          <mxGeometry x="270" y="906" width="16" height="14" as="geometry" />
        </mxCell>
        <mxCell id="fRGhDktETYHb91IR-q1d-86" value="PB" style="rounded=0;whiteSpace=wrap;html=1;" vertex="1" parent="1">
          <mxGeometry x="280" y="916" width="16" height="14" as="geometry" />
        </mxCell>
        <mxCell id="fRGhDktETYHb91IR-q1d-87" value="PB" style="rounded=0;whiteSpace=wrap;html=1;" vertex="1" parent="1">
          <mxGeometry x="290" y="926" width="16" height="14" as="geometry" />
        </mxCell>
      </root>
    </mxGraphModel>
  </diagram>
</mxfile>
